<svg id="Layer_1" data-name="Layer 1" xmlns="http://www.w3.org/2000/svg" width="500" height="500" viewBox="0 0 500 500"><title>icons</title><path d="M.2,0H500V499.5H.2ZM80.5,138.5V355.2a8.2,8.2,0,0,0,2,.6c37.8-.3,75.7.3,113.4-1.3,35.5-1.6,59.1-25.2,62-59.4,2-23.5-7.1-45.4-30.9-54.9a4.3,4.3,0,0,1-1.2-.8c5.1-4.2,10.8-7.7,14.8-12.5,17.7-21.1,13-58.3-9-74.9-12.1-9.1-26.1-12.8-40.8-13.1-25.9-.5-51.8-.2-77.7-.3ZM430.4,286.9c-.6-10.7-.5-20.7-1.9-30.4-3.4-24.5-14.8-44.3-37.1-56.4-14.6-7.9-30.6-9.9-47-9.3-33.5,1.3-60.9,22.4-69.6,54.1a122.1,122.1,0,0,0-1.1,60c3.2,14.1,9.6,26.5,21,35.9,23.3,18.9,49.8,23.7,78.6,18.1,21.7-4.2,38-16.2,49.1-35.2,2.5-4.3,3.7-9.3,5.9-14.9-14.5,0-27.5-.1-40.4.1a5.3,5.3,0,0,0-3.9,2c-8.8,15-22.9,17.3-38.4,15.9-20.1-1.8-35.5-21.2-31.6-39.8Zm-130-114.7h94v-21h-94Z" fill="#3f4045"/><path d="M123.4,261.1c22.6,0,44.8-1.2,66.9.4,16.1,1.1,22.7,11.3,22.2,28.2-.4,15.2-9,25.6-23.8,27.2-10,1.1-20.1,1-30.2,1.2s-23,0-35.1,0Z" fill="#3f4045"/><path d="M123,223.2V177.3c.5-.4.8-.9,1.1-.9,21,.2,42-.6,62.8,1,15.5,1.2,20.7,7.9,20.9,20.6.2,15.3-5,23.5-20.4,24.7C166.3,224.4,144.8,223.2,123,223.2Z" fill="#3f4045"/><path d="M386.2,259.2H314.1c1.6-12.2,5.6-22.8,16.3-28.9,13.4-7.7,27.5-7.3,40.8.7C381.6,237.2,385.8,247,386.2,259.2Z" fill="#3f4045"/></svg>