<svg id="Layer_1" data-name="Layer 1" xmlns="http://www.w3.org/2000/svg" width="500" height="500" viewBox="0 0 500 500"><title>icons</title><path d="M488.5,255.8C488.5,124.1,381.7,17.3,250,17.3S11.5,124.1,11.5,255.8c0,104.5,67.3,193.4,160.9,225.6,5.7-4.1,12.3-9.2,12.3-17.8,0-13.1-.3-46.9-.3-46.9a165.5,165.5,0,0,1-25.1,1.8c-37.2,0-49-23.6-54.6-36.8-7.3-17.2-16.7-25.3-26.8-31.8-6.2-4-7.6-8.7-.4-10,32.9-6.2,41.4,37.2,63.4,44.1,15.7,4.9,35.9,2.8,45.9-3.7,1.3-13.2,10.9-24.7,18.9-30.7-56-5.3-89.2-24.7-106.4-55.8l-1.8-3.5-4.3-9.9L91.9,277c-5.4-15.8-7.8-33.8-7.8-54,0-35.8,11.2-49.3,26.3-68.4-11.5-40.8,4.1-68.8,4.1-68.8s24.2-5,70,27.6c24.8-10.6,91-11.5,122.3-2.4,19.2-12.6,54.4-30.6,68.5-25.5,3.8,6.1,12.1,24.1,5,63.4,4.8,8.6,29.8,27,29.9,79-.4,19.2-2.4,35.4-6.1,49.1l-2.1,7s-1.2,3.3-2.5,6.5l-1.5,3.5c-16.6,36.3-50.7,49.8-105.7,55.4,17.8,11.2,22.9,25.2,22.9,63.1s-.5,43-.4,51.7,6.3,13.2,11.8,17.4c94-32,161.6-121,161.6-225.8" fill="#3f4045"/></svg>