<?xml version="1.0" encoding="utf-8"?>
<!-- Generator: Adobe Illustrator 21.1.0, SVG Export Plug-In . SVG Version: 6.00 Build 0)  -->
<svg version="1.1" id="Layer_1" xmlns="http://www.w3.org/2000/svg" xmlns:xlink="http://www.w3.org/1999/xlink" x="0px" y="0px"
	 viewBox="0 0 286 375" style="enable-background:new 0 0 286 375;" xml:space="preserve">
<style type="text/css">
	.st0{fill:none;stroke:#070405;stroke-width:16.79;stroke-linecap:round;stroke-miterlimit:10;}
	.st1{fill:none;stroke:url(#SVGID_1_);stroke-width:16.79;stroke-linecap:round;stroke-miterlimit:10;}
	.st2{fill:none;stroke:url(#SVGID_2_);stroke-width:16.79;stroke-linecap:round;stroke-miterlimit:10;}
	.st3{fill:none;stroke:url(#SVGID_3_);stroke-width:16.79;stroke-linecap:round;stroke-miterlimit:10;}
	.st4{fill:none;stroke:url(#SVGID_4_);stroke-width:16.79;stroke-linecap:round;stroke-miterlimit:10;}
	.st5{fill:none;stroke:#391215;stroke-width:16.79;stroke-linecap:round;stroke-miterlimit:10;}
	.st6{fill:none;stroke:#651317;stroke-width:16.79;stroke-linecap:round;stroke-miterlimit:10;}
	.st7{fill:none;stroke:#801922;stroke-width:16.79;stroke-linecap:round;stroke-miterlimit:10;}
	.st8{fill:none;stroke:#AE2E2A;stroke-width:16.79;stroke-linecap:round;stroke-miterlimit:10;}
</style>
<title>logo</title>
<line class="st0" x1="208.2" y1="127.3" x2="80.2" y2="266.1"/>
<linearGradient id="SVGID_1_" gradientUnits="userSpaceOnUse" x1="95.1383" y1="361.6016" x2="173.9283" y2="361.6016" gradientTransform="matrix(0.998 0 0 -0.998 -0.499 375.7275)">
	<stop  offset="0.2" style="stop-color:#0A0908"/>
	<stop  offset="0.39" style="stop-color:#371418"/>
	<stop  offset="0.56" style="stop-color:#651218"/>
	<stop  offset="0.77" style="stop-color:#801821"/>
	<stop  offset="1" style="stop-color:#AE2B2A"/>
</linearGradient>
<line class="st1" x1="102.8" y1="14.8" x2="164.7" y2="14.8"/>
<linearGradient id="SVGID_2_" gradientUnits="userSpaceOnUse" x1="148.7383" y1="310.0016" x2="227.5283" y2="310.0016" gradientTransform="matrix(0.998 0 0 -0.998 -0.499 375.7275)">
	<stop  offset="0.2" style="stop-color:#0A0908"/>
	<stop  offset="0.39" style="stop-color:#371418"/>
	<stop  offset="0.56" style="stop-color:#651218"/>
	<stop  offset="0.77" style="stop-color:#801821"/>
	<stop  offset="1" style="stop-color:#AE2B2A"/>
</linearGradient>
<line class="st2" x1="156.3" y1="66.3" x2="218.2" y2="66.3"/>
<linearGradient id="SVGID_3_" gradientUnits="userSpaceOnUse" x1="67.6383" y1="164.9016" x2="146.4283" y2="164.9016" gradientTransform="matrix(0.998 0 0 -0.998 -0.499 375.7275)">
	<stop  offset="0.2" style="stop-color:#0A0908"/>
	<stop  offset="0.39" style="stop-color:#371418"/>
	<stop  offset="0.56" style="stop-color:#651218"/>
	<stop  offset="0.77" style="stop-color:#801821"/>
	<stop  offset="1" style="stop-color:#AE2B2A"/>
</linearGradient>
<line class="st3" x1="75.4" y1="211.2" x2="137.3" y2="211.2"/>
<linearGradient id="SVGID_4_" gradientUnits="userSpaceOnUse" x1="67.6383" y1="16.2016" x2="146.4283" y2="16.2016" gradientTransform="matrix(0.998 0 0 -0.998 -0.499 375.7275)">
	<stop  offset="0.2" style="stop-color:#0A0908"/>
	<stop  offset="0.39" style="stop-color:#371418"/>
	<stop  offset="0.56" style="stop-color:#651218"/>
	<stop  offset="0.77" style="stop-color:#801821"/>
	<stop  offset="1" style="stop-color:#AE2B2A"/>
</linearGradient>
<line class="st4" x1="75.4" y1="359.6" x2="137.3" y2="359.6"/>
<line class="st0" x1="15.5" y1="127.3" x2="208.2" y2="127.3"/>
<line class="st0" x1="75.4" y1="211.2" x2="75.4" y2="359.6"/>
<line class="st0" x1="15.5" y1="127.3" x2="102.8" y2="14.8"/>
<line class="st0" x1="156.3" y1="66.3" x2="102.8" y2="14.8"/>
<line class="st5" x1="31" y1="127.3" x2="223.7" y2="127.3"/>
<line class="st5" x1="223.7" y1="127.3" x2="95.6" y2="266.1"/>
<line class="st5" x1="90.9" y1="211.2" x2="90.9" y2="359.6"/>
<line class="st5" x1="31" y1="127.3" x2="118.3" y2="14.8"/>
<line class="st5" x1="171.8" y1="66.3" x2="118.3" y2="14.8"/>
<line class="st6" x1="46.4" y1="127.3" x2="239.2" y2="127.3"/>
<line class="st6" x1="239.2" y1="127.3" x2="111.1" y2="266.1"/>
<line class="st6" x1="106.3" y1="211.2" x2="106.3" y2="359.6"/>
<line class="st6" x1="46.4" y1="127.3" x2="133.8" y2="14.8"/>
<line class="st6" x1="187.3" y1="66.3" x2="133.8" y2="14.8"/>
<line class="st7" x1="61.9" y1="127.3" x2="254.6" y2="127.3"/>
<line class="st7" x1="254.6" y1="127.3" x2="126.6" y2="266.1"/>
<line class="st7" x1="121.8" y1="211.2" x2="121.8" y2="359.6"/>
<line class="st7" x1="61.9" y1="127.3" x2="149.2" y2="14.8"/>
<line class="st7" x1="202.7" y1="66.3" x2="149.2" y2="14.8"/>
<line class="st8" x1="77.4" y1="127.3" x2="270.1" y2="127.3"/>
<line class="st8" x1="270.1" y1="127.3" x2="142.1" y2="266.1"/>
<line class="st8" x1="137.3" y1="211.2" x2="137.3" y2="359.6"/>
<line class="st8" x1="77.4" y1="127.3" x2="164.7" y2="14.8"/>
<line class="st8" x1="218.2" y1="66.3" x2="164.7" y2="14.8"/>
</svg>
