<svg id="Layer_1" data-name="Layer 1" xmlns="http://www.w3.org/2000/svg" width="500" height="500" viewBox="0 0 500 500"><title>icons</title><path d="M401.4,415.6,375,410.4c-26-5.2-52.1-10.5-78.1-15.8-3.3-.7-4.3,1-5.4,3.2-9.6,18.6-19.3,37.2-29,55.7-3.9,7.5-9.8,12.9-18.4,14.3-10.4,1.7-18.1-3.3-22.9-11.9s-8.1-17.5-11.7-26.4c-7-17.3-13.8-34.7-20.6-52.1-1.3-3.3-2.9-4.9-6.7-5.7q-80.1-15.7-160.1-31.8c-6.6-1.3-13.6-3-14.8-11s4.8-11.4,10.4-14.9L375.1,94.1l95.1-58.5a30.7,30.7,0,0,1,3.4-1.9c4.8-2.2,9.7-2.9,14.2.4s5.6,8.6,4.7,13.9c-2.4,13.8-5,27.6-7.6,41.3l-21,111L440.2,326.6c-4.3,23.1-8.7,46.2-13.1,69.3C424.9,407.4,414.9,415.5,401.4,415.6Zm37.8-312L99.6,312.6l4.1,1.2c32.8,6.6,65.7,13,98.4,19.8,4,.8,6.1-.4,8.8-2.9L354,192.5c5.1-4.9,9.8-5.5,14.1-1.8s4.2,8.7.4,14.3L296.3,309.8l-25.6,37.3,118.2,23.6Z" fill="#3f4045"/></svg>