<svg id="Layer_1" data-name="Layer 1" xmlns="http://www.w3.org/2000/svg" width="500" height="500" viewBox="0 0 500 500"><title>icons</title><path d="M493.2,117.2c3.7-20.5,3.6-41.7-9.1-57.6-17.7-22.4-55.4-23.2-81.2-19.3-21,3.2-92,34.5-116.2,109.5,42.8-3.3,65.2,3.1,61.1,50.2-1.7,19.7-11.7,41.3-22.8,62-12.8,23.9-36.9,70.8-68.5,37-28.4-30.4-26.3-88.6-32.8-127.3-3.6-21.7-7.5-48.8-14.6-71.2C203,81.4,189,58.2,171.7,53.2s-41.3,3-54.8,11C74.3,89.2,41.7,124.9,4.7,154.4v2.8c7.3,7,9.3,18.5,20.1,20,25.4,3.7,49.7-23.7,66.6,4.9,10.3,17.5,13.5,36.6,20.1,55.4,8.8,25.1,15.6,52.4,22.8,81.2,12.2,48.8,27.2,121.8,69.4,139.6,21.5,9.1,53.9-3.1,70.3-12.8,44.4-26.3,79-64.3,108.5-103.1,67.7-91.7,105-195.5,110.7-225.2Z" fill="#3f4045" fill-rule="evenodd"/></svg>